<svg width="138" height="103" viewBox="0 0 138 103" fill="none" xmlns="http://www.w3.org/2000/svg">
<path fill-rule="evenodd" clip-rule="evenodd" d="M83.266 0.13105C83.082 0.20305 82.07 0.31105 81.016 0.37105C79.961 0.43005 78.836 0.54905 78.516 0.63605C78.195 0.72305 77.595 0.84105 77.182 0.90005C76.77 0.95905 76.352 1.07305 76.254 1.15405C76.156 1.23605 75.677 1.38805 75.189 1.49305C74.421 1.65705 73.334 2.09605 72.31 2.65405C72.15 2.74105 71.924 2.81205 71.807 2.81205C71.689 2.81205 71.322 2.99605 70.991 3.22105C70.66 3.44605 70.361 3.60105 70.326 3.56605C70.291 3.53105 69.824 3.79705 69.289 4.15705C68.753 4.51705 68.244 4.81205 68.156 4.81205C68.068 4.81205 68.05 4.89905 68.117 5.00705C68.195 5.13305 68.15 5.16805 67.989 5.10705C67.848 5.05205 67.657 5.14705 67.544 5.32805C67.435 5.50205 67.239 5.64505 67.107 5.64505C66.976 5.64505 66.751 5.81205 66.608 6.01505C66.466 6.21905 66.349 6.32205 66.349 6.24405C66.349 6.16705 66.086 6.39005 65.766 6.74005C65.445 7.09005 65.182 7.31905 65.182 7.24805C65.182 7.17705 64.988 7.35005 64.75 7.63305C64.513 7.91505 64.25 8.10405 64.167 8.05205C64.084 8.00105 64.016 8.02105 64.016 8.09805C64.016 8.17505 63.491 8.79605 62.849 9.47805C62.207 10.1611 61.682 10.767 61.682 10.826C61.682 10.885 61.458 11.1871 61.184 11.4971C60.91 11.8081 60.642 12.1931 60.589 12.3531C60.536 12.5141 60.437 12.6451 60.367 12.6451C60.298 12.6451 60.065 13.001 59.85 13.437C59.635 13.872 59.415 14.266 59.36 14.312C59.141 14.497 57.68 17.6151 57.581 18.1091C57.523 18.4011 57.41 18.5991 57.331 18.5501C57.251 18.5011 57.231 18.5771 57.285 18.7201C57.34 18.8621 57.314 18.9781 57.227 18.9781C57.141 18.9781 56.933 19.5971 56.765 20.3531C56.597 21.1101 56.398 21.81 56.322 21.91C56.247 22.01 56.23 22.137 56.284 22.191C56.338 22.245 56.321 22.3881 56.246 22.5091C56.094 22.7521 56.1 22.714 55.839 25.062C55.591 27.295 55.765 32.457 56.134 33.812C56.197 34.041 56.259 34.3031 56.273 34.3951C56.287 34.4871 56.34 34.674 56.392 34.812C56.476 35.035 56.736 36.031 56.931 36.87C56.971 37.04 57.089 37.283 57.195 37.41C57.3 37.537 57.341 37.7581 57.286 37.9021C57.231 38.0451 57.247 38.125 57.322 38.078C57.396 38.032 57.591 38.441 57.755 38.986C57.918 39.532 58.123 39.9781 58.21 39.9781C58.297 39.9781 58.319 40.0591 58.258 40.1571C58.197 40.2561 58.324 40.5241 58.54 40.7541C58.756 40.9841 58.906 41.2071 58.873 41.2491C58.783 41.3671 59.206 42.312 59.35 42.312C59.42 42.312 59.522 42.4431 59.578 42.6031C59.687 42.9201 60.032 43.462 60.682 44.335C60.91 44.643 61.098 44.9331 61.098 44.9781C61.099 45.0241 61.161 45.041 61.236 45.016C61.312 44.991 61.326 45.0471 61.267 45.1421C61.209 45.2371 61.278 45.3591 61.422 45.4141C61.565 45.4691 61.682 45.6071 61.682 45.7201C61.682 45.8331 62.245 46.49 62.932 47.18C63.62 47.87 64.182 48.5191 64.182 48.6231C64.182 48.7271 64.246 48.812 64.325 48.812C64.403 48.812 64.651 48.98 64.875 49.187C65.099 49.393 65.579 49.7831 65.941 50.0521C66.303 50.3221 66.653 50.6311 66.72 50.7391C66.787 50.8471 67.068 51.0291 67.345 51.1431C67.622 51.2581 67.849 51.413 67.849 51.487C67.849 51.561 68.205 51.796 68.641 52.008C69.076 52.221 69.47 52.44 69.516 52.495C69.561 52.55 69.899 52.7331 70.266 52.9001C70.632 53.0671 71.12 53.3261 71.349 53.4751C71.578 53.6241 72.103 53.883 72.516 54.05C72.928 54.217 73.491 54.452 73.766 54.572C74.041 54.692 74.397 54.8301 74.557 54.8791C74.828 54.9621 74.85 55.449 74.87 61.806C74.894 69.855 74.845 69.0081 75.306 69.2381C75.512 69.3411 75.644 69.4611 75.599 69.5061C75.554 69.5511 75.873 69.585 76.308 69.582L77.099 69.576L83.682 62.9561L90.266 56.3361L101.432 56.266C107.574 56.228 112.862 56.1511 113.182 56.0951C113.503 56.0391 114.103 55.9461 114.516 55.8871C114.928 55.8281 115.356 55.7061 115.467 55.6151C115.577 55.5241 115.746 55.498 115.842 55.557C115.937 55.616 116.016 55.594 116.016 55.507C116.016 55.42 116.365 55.2971 116.792 55.2331C117.219 55.1691 117.763 55.036 118 54.938C118.238 54.84 118.507 54.7481 118.599 54.7341C118.691 54.7201 119.066 54.5751 119.432 54.4131C119.799 54.2511 120.38 53.9981 120.724 53.8501C121.068 53.7021 121.349 53.52 121.349 53.446C121.349 53.372 121.405 53.325 121.474 53.342C121.671 53.389 123.016 52.747 123.016 52.606C123.016 52.536 123.123 52.4781 123.254 52.4781C123.385 52.4781 123.611 52.3591 123.757 52.2131C123.903 52.0671 124.115 51.9331 124.227 51.9151C124.518 51.8681 125.133 51.49 124.932 51.481C124.841 51.478 125.067 51.302 125.435 51.092C126.243 50.629 126.688 50.2801 127.631 49.3661C128.026 48.9841 128.349 48.7061 128.349 48.7491C128.349 48.8691 129.676 47.4491 130.045 46.9351C130.226 46.6821 130.444 46.517 130.528 46.57C130.613 46.622 130.682 46.559 130.682 46.43C130.682 46.3 130.903 45.963 131.173 45.681C131.6 45.235 132.194 44.418 132.764 43.495C132.854 43.348 133.173 42.8411 133.472 42.3671C133.771 41.8931 134.016 41.4171 134.016 41.3091C134.016 41.2011 134.173 40.8931 134.365 40.6231C134.557 40.3541 134.733 40.042 134.756 39.931C134.779 39.819 134.884 39.517 134.99 39.259C135.096 39.001 135.182 38.692 135.182 38.571C135.182 38.451 135.287 38.266 135.414 38.16C135.542 38.054 135.685 37.764 135.732 37.515C135.903 36.607 136.024 36.1441 136.21 35.6911C136.314 35.4371 136.406 35.041 136.416 34.812C136.425 34.583 136.491 34.352 136.562 34.299C137.125 33.882 137.327 26.179 136.844 23.562C136.742 23.012 136.636 22.4121 136.609 22.2281C136.581 22.0451 136.54 21.857 136.518 21.812C136.495 21.766 136.463 21.653 136.445 21.562C136.428 21.47 136.363 21.2821 136.302 21.1451C136.241 21.0081 136.111 20.5571 136.014 20.1451C135.916 19.7321 135.811 19.3201 135.78 19.2281C135.75 19.1371 135.669 18.8191 135.6 18.5231C135.531 18.2261 135.424 18.0161 135.361 18.0541C135.298 18.0931 135.157 17.792 135.048 17.385C134.939 16.978 134.771 16.6451 134.673 16.6451C134.576 16.6451 134.542 16.5701 134.599 16.4781C134.656 16.3871 134.61 16.312 134.498 16.312C134.385 16.312 134.334 16.271 134.383 16.222C134.432 16.173 134.222 15.667 133.917 15.097C133.611 14.528 133.193 13.7431 132.988 13.3531C132.784 12.9641 132.558 12.6451 132.487 12.6451C132.416 12.6451 132.232 12.4011 132.079 12.1031C131.926 11.8051 131.643 11.4001 131.45 11.2021C130.975 10.7161 130.682 10.3461 130.682 10.2301C130.682 10.1781 130.232 9.68305 129.682 9.13205C129.132 8.58005 128.682 8.05705 128.682 7.97005C128.682 7.88305 128.623 7.81205 128.55 7.81205C128.363 7.81205 127.724 7.31105 127.22 6.77005C126.986 6.51805 126.694 6.31205 126.571 6.31205C126.449 6.31205 126.349 6.23805 126.349 6.14705C126.349 6.05705 126.03 5.77605 125.641 5.52305C125.251 5.26905 124.852 4.98705 124.753 4.89505C124.655 4.80305 124.28 4.57805 123.92 4.39505C123.56 4.21205 123.189 3.96405 123.094 3.84405C123 3.72405 122.813 3.60105 122.678 3.56905C122.074 3.42905 121.682 3.26305 121.682 3.14605C121.682 3.01705 120.783 2.59705 120.382 2.53705C120.263 2.52005 119.979 2.38405 119.752 2.23505C119.525 2.08605 119.267 2.01005 119.178 2.06505C119.089 2.12005 119.016 2.08505 119.016 1.98805C119.016 1.89105 118.841 1.81205 118.627 1.81205C118.413 1.81205 118.186 1.76005 118.122 1.69605C118.059 1.63305 117.869 1.56005 117.701 1.53405C117.532 1.50805 117.178 1.39805 116.913 1.28805C116.649 1.17905 116.32 1.08205 116.182 1.07305C116.045 1.06405 115.857 1.01105 115.766 0.95505C115.674 0.90005 115.224 0.79505 114.766 0.72205C114.307 0.65005 113.82 0.56405 113.682 0.53205C112.299 0.20705 107.973 0.09205 96.599 0.07505L83.766 0.05605L96.432 0.14405L109.099 0.23105L96.297 0.27205C87.795 0.29805 83.531 0.25605 83.599 0.14505C83.717 -0.0459501 83.714 -0.0459501 83.266 0.13105ZM85.849 17.3101C85.849 17.3851 86.074 17.4301 86.349 17.4111C86.624 17.3911 86.849 17.422 86.849 17.479C86.849 17.536 87.231 17.68 87.697 17.799C88.163 17.919 88.93 18.2701 89.401 18.5811C89.873 18.8911 90.33 19.1451 90.419 19.1451C90.507 19.1451 90.966 19.557 91.439 20.062C91.912 20.566 92.385 20.9781 92.491 20.9781C92.596 20.9781 92.682 21.0701 92.682 21.1821C92.682 21.4141 94.624 23.312 94.861 23.312C94.946 23.312 94.997 23.3701 94.974 23.4421C94.917 23.6201 97.303 25.969 97.421 25.851C97.473 25.799 97.516 25.839 97.516 25.941C97.516 26.189 98.961 27.6441 99.085 27.5201C99.138 27.4671 99.182 27.5001 99.182 27.5951C99.182 27.6901 99.595 28.1901 100.099 28.7061C100.603 29.2231 101.016 29.608 101.016 29.562C101.016 29.516 101.184 29.6471 101.391 29.8531C101.597 30.0601 101.766 30.267 101.766 30.313C101.766 30.467 103.329 31.9431 103.408 31.8641C103.45 31.8211 103.532 31.9341 103.589 32.1141C103.647 32.2951 103.848 32.4831 104.038 32.5321C104.232 32.5831 104.334 32.702 104.27 32.805C104.208 32.905 104.23 32.9661 104.318 32.9411C104.407 32.9161 104.619 33.046 104.789 33.231C104.96 33.415 105.399 33.715 105.766 33.897C106.132 34.079 106.487 34.3031 106.555 34.3951C106.622 34.4871 106.678 34.496 106.68 34.416C106.681 34.336 106.795 34.3641 106.932 34.4781C107.07 34.5921 107.182 34.63 107.182 34.562C107.182 34.493 107.282 34.5201 107.403 34.6211C108.6 35.6141 114.182 33.7231 114.182 32.3241C114.182 32.2351 114.302 32.0951 114.447 32.0131C114.593 31.9321 114.704 31.8151 114.694 31.7531C114.684 31.6921 114.792 31.417 114.933 31.143C115.075 30.869 115.149 30.6451 115.097 30.6451C115.046 30.6451 115.096 30.4761 115.208 30.2701C115.523 29.6911 115.731 28.0911 115.538 27.7341C115.49 27.6451 115.442 27.383 115.43 27.15C115.406 26.682 115.272 26.2781 114.924 25.6271C114.796 25.3871 114.734 25.149 114.786 25.097C114.839 25.044 114.724 24.9031 114.532 24.7831C114.34 24.6631 114.182 24.4771 114.182 24.3701C114.182 24.2621 113.939 23.9831 113.641 23.7491C113.343 23.5151 112.983 23.2241 112.842 23.1021C112.559 22.8581 111.578 22.456 110.932 22.319C110.841 22.299 110.691 22.2271 110.599 22.1581C110.311 21.9421 107.349 21.9261 107.349 22.1411C107.349 22.2461 107.284 22.2911 107.205 22.2421C107.038 22.1391 105.835 22.6921 105.317 23.1101C105.122 23.2671 104.684 23.64 104.342 23.938C103.744 24.462 102.922 24.5231 102.937 24.0431C102.944 23.8051 102.469 23.321 102.319 23.413C102.244 23.46 102.182 23.398 102.182 23.275C102.182 23.027 101.503 22.3791 101.307 22.4401C101.239 22.4611 101.181 22.3851 101.179 22.2701C101.178 22.1551 100.987 21.8821 100.755 21.6621L100.334 21.2621L100.8 20.75C101.056 20.469 101.411 20.128 101.589 19.993C101.767 19.859 102.048 19.6131 102.214 19.4471C102.38 19.2811 102.565 19.1451 102.625 19.1451C102.685 19.1451 102.976 18.961 103.271 18.736C103.566 18.51 103.855 18.373 103.912 18.43C103.969 18.487 104.016 18.4461 104.016 18.3391C104.016 18.2331 104.161 18.1451 104.339 18.1451C104.517 18.1451 104.703 18.08 104.752 18C104.801 17.921 105.143 17.8071 105.512 17.7481C105.881 17.6891 106.182 17.572 106.182 17.487C106.182 17.403 106.365 17.367 106.588 17.407C106.812 17.448 107.041 17.405 107.098 17.313C107.237 17.088 110.962 17.091 111.102 17.316C111.16 17.41 111.296 17.4731 111.403 17.4561C111.57 17.4291 112.136 17.5391 112.766 17.7211C112.857 17.7481 113.007 17.7851 113.099 17.8041C113.386 17.8641 114.929 18.7221 114.988 18.8531C115.018 18.9221 115.146 18.9781 115.271 18.9781C115.397 18.9781 115.576 19.1101 115.669 19.2701C115.762 19.4301 115.841 19.504 115.844 19.434C115.847 19.363 116.327 19.8031 116.912 20.4121C118.3 21.8561 118.516 22.112 118.516 22.312C118.516 22.403 118.591 22.4781 118.682 22.4781C118.774 22.4781 118.849 22.5611 118.849 22.6611C118.849 22.7611 118.989 23.0431 119.159 23.2861C119.435 23.6791 119.818 24.6451 119.917 25.1971C119.937 25.3061 120.012 25.572 120.085 25.788C120.157 26.005 120.236 26.492 120.26 26.872C120.284 27.251 120.363 27.8551 120.435 28.2131C120.521 28.6311 120.509 28.8271 120.403 28.7621C120.301 28.6991 120.247 29.012 120.261 29.58C120.273 30.086 120.223 30.5371 120.149 30.5821C120.076 30.6281 120.016 30.83 120.016 31.032C120.016 31.867 118.814 34.4311 118.154 35.0031C117.974 35.1591 117.83 35.3291 117.833 35.3811C117.852 35.6561 117.613 35.978 117.321 36.071C117.139 36.128 117.033 36.2181 117.084 36.2691C117.136 36.3211 116.955 36.5271 116.682 36.7281C116.41 36.9291 116.23 37.137 116.282 37.189C116.334 37.241 116.05 37.428 115.651 37.605C115.252 37.781 114.813 38.038 114.675 38.176C114.537 38.314 114.014 38.5621 113.512 38.7281C113.01 38.8941 112.415 39.1491 112.19 39.2961C111.716 39.6041 107.609 39.7511 106.757 39.4901C105.329 39.0541 103.977 38.4971 103.371 38.0961C102.996 37.8481 102.621 37.6451 102.538 37.6451C102.455 37.6451 102.264 37.4581 102.114 37.2281C101.964 36.9991 101.778 36.812 101.701 36.812C101.624 36.812 100.745 35.9861 99.747 34.9761C98.749 33.9661 97.834 33.0471 97.714 32.9341C97.594 32.8211 95.451 30.7031 92.953 28.2281C88.426 23.7441 87.968 23.311 87.508 23.09C87.375 23.026 86.938 22.789 86.537 22.562C86.136 22.336 85.747 22.1881 85.673 22.2341C85.599 22.2801 85.496 22.248 85.444 22.164C85.323 21.968 82.383 21.9551 82.262 22.1511C82.212 22.2311 82.062 22.2551 81.927 22.2031C81.792 22.1521 81.682 22.1831 81.682 22.2731C81.682 22.3631 81.458 22.4811 81.185 22.5361C80.911 22.5911 80.557 22.7881 80.398 22.9741C80.238 23.1601 80.026 23.312 79.925 23.312C79.745 23.312 79.091 23.9771 78.766 24.4921C78.674 24.6371 78.437 25.001 78.239 25.302C77.325 26.693 77.396 31.812 78.329 31.812C78.39 31.812 78.58 32.072 78.751 32.39C78.923 32.708 79.122 32.9321 79.195 32.8871C79.267 32.8431 79.432 32.957 79.561 33.141C79.69 33.325 79.845 33.4271 79.906 33.3661C79.966 33.3061 80.016 33.366 80.016 33.5C80.016 33.635 80.278 33.8401 80.599 33.9561C80.92 34.0721 81.182 34.2491 81.182 34.3501C81.182 34.4511 81.232 34.485 81.292 34.424C81.352 34.364 81.503 34.398 81.626 34.501C82.175 34.956 86.682 34.7931 86.682 34.3181C86.682 34.2431 86.853 34.1381 87.062 34.0861C87.271 34.0331 87.84 33.6131 88.326 33.1511C89.123 32.3951 89.701 32.0441 89.432 32.4781C89.376 32.5701 89.399 32.6451 89.485 32.6451C89.722 32.6451 91.105 33.9691 91.057 34.1521C91.034 34.2401 91.072 34.2931 91.141 34.2701C91.209 34.2471 91.279 34.3001 91.295 34.3871C91.311 34.4741 91.48 34.603 91.67 34.673C91.86 34.743 92.016 34.9201 92.016 35.0661C92.016 35.2121 92.091 35.2851 92.184 35.2281C92.542 35.0061 92.517 35.6301 92.151 36.0271C91.939 36.2581 91.676 36.5471 91.565 36.6711C91.291 36.9781 91.011 37.199 90.428 37.571C90.155 37.745 89.874 37.979 89.803 38.092C89.732 38.205 89.563 38.255 89.428 38.204C89.293 38.152 89.182 38.1831 89.182 38.2741C89.182 38.3641 88.939 38.529 88.641 38.64C88.343 38.751 87.912 38.923 87.682 39.023C87.453 39.122 87.198 39.1861 87.114 39.1651C87.031 39.1441 86.903 39.2251 86.829 39.3451C86.669 39.6031 81.814 39.66 81.266 39.409C81.082 39.326 80.895 39.2441 80.849 39.2281C80.803 39.2121 80.653 39.1581 80.516 39.1071C80.378 39.0571 79.891 38.8821 79.432 38.7201C78.974 38.5581 78.561 38.373 78.516 38.308C78.47 38.243 78.116 38.029 77.73 37.834C77.343 37.638 76.955 37.343 76.867 37.18C76.78 37.016 76.517 36.78 76.284 36.655C76.051 36.53 75.887 36.383 75.921 36.328C75.954 36.273 75.876 36.1321 75.748 36.0131C75.62 35.8951 75.516 35.8501 75.516 35.9141C75.516 35.9771 75.366 35.8561 75.182 35.6451C74.999 35.4341 74.849 35.203 74.849 35.132C74.849 35.062 74.676 34.7921 74.464 34.5331C73.084 32.8431 72.357 29.2431 72.838 26.4781C73.166 24.5941 73.202 24.4711 73.391 24.5881C73.506 24.6591 73.534 24.6001 73.468 24.4281C73.411 24.2781 73.427 24.116 73.504 24.069C73.582 24.021 73.697 23.7751 73.76 23.5221C73.823 23.2691 73.993 22.9301 74.138 22.7701C74.282 22.6101 74.352 22.4781 74.291 22.4781C74.231 22.4781 74.314 22.338 74.474 22.167C75.392 21.186 75.682 20.822 75.682 20.65C75.682 20.545 75.757 20.505 75.849 20.562C75.941 20.618 76.016 20.575 76.016 20.465C76.016 20.239 76.122 20.15 77.816 18.965C78.486 18.496 79.123 18.099 79.233 18.083C79.343 18.066 79.507 18.0081 79.599 17.9541C79.826 17.8201 81.568 17.402 81.724 17.444C81.793 17.463 81.849 17.407 81.849 17.319C81.849 17.143 83.613 17.0301 84.974 17.1191C85.455 17.1501 85.849 17.2361 85.849 17.3101ZM15.962 19.3351C15.854 19.3941 15.466 19.479 15.099 19.524C13.969 19.662 12.825 20.0141 12.734 20.2521C12.686 20.3761 12.548 20.4781 12.426 20.4781C12.305 20.4781 12.096 20.588 11.962 20.722C11.828 20.857 11.618 20.988 11.495 21.014C11.373 21.04 11.07 21.309 10.822 21.612C10.574 21.915 10.325 22.14 10.268 22.112C10.211 22.084 10 22.3611 9.798 22.7281C9.597 23.0941 9.332 23.499 9.21 23.629C8.955 23.898 8.722 24.462 8.61 25.08C8.567 25.315 8.445 25.6131 8.338 25.7421C8.231 25.8711 8.179 26.162 8.222 26.389C8.265 26.616 8.24 26.7641 8.166 26.7181C8.092 26.6731 8.039 26.9191 8.048 27.2651C8.057 27.6121 8.054 41.264 8.04 57.6031L8.016 87.312H4.008H0L0.0250001 90.859C0.0430001 93.387 0.117 94.596 0.281 95.067C0.407 95.431 0.512 95.8411 0.514 95.9781C0.516 96.1161 0.618 96.4211 0.741 96.6561C0.864 96.8911 1.015 97.287 1.078 97.535C1.14 97.784 1.342 98.154 1.528 98.358C2.084 98.97 2.271 99.2031 2.664 99.7701C2.87 100.068 3.146 100.312 3.277 100.312C3.408 100.312 3.516 100.406 3.516 100.52C3.516 100.635 3.853 100.908 4.266 101.127C4.678 101.346 5.016 101.597 5.016 101.686C5.016 101.775 5.12 101.807 5.249 101.758C5.377 101.709 5.761 101.818 6.102 102.001C7.144 102.56 7.34 102.562 61.182 102.562H113.432L114.834 102.195C115.605 101.993 116.28 101.765 116.334 101.687C116.388 101.609 116.793 101.337 117.234 101.082C118.378 100.421 120.476 98.1381 120.392 97.6451C120.384 97.5991 120.461 97.4601 120.564 97.3371C120.667 97.2131 120.768 97.0251 120.788 96.9201C120.84 96.6551 121.199 95.636 121.392 95.206C121.479 95.011 121.497 94.6081 121.432 94.3111C121.354 93.9531 121.372 93.8061 121.486 93.8771C121.602 93.9491 121.664 92.9071 121.675 90.6671C121.695 86.7001 122.233 87.1451 117.419 87.1451H113.682L113.68 75.187C113.678 68.61 113.622 63.147 113.555 63.048C113.475 62.93 113.059 62.906 112.349 62.979C111.753 63.04 109.132 63.1071 106.523 63.1291C103.915 63.1501 101.721 63.204 101.648 63.249C101.575 63.294 101.516 68.7271 101.516 75.3221V87.312H86.776C78.668 87.312 71.998 87.3731 71.951 87.4471C71.905 87.5221 71.85 87.931 71.828 88.356C71.777 89.324 70.985 90.396 69.992 90.841C69.088 91.246 51.918 91.238 51.182 90.832C50.228 90.306 49.627 89.279 49.61 88.1451L49.599 87.3951L34.724 87.3521L19.849 87.3101V59.2271V31.1451H34.432H49.016V28.3491C49.016 26.8111 49.093 24.9551 49.187 24.2241C49.408 22.5011 49.422 22.4271 49.551 22.2201C49.611 22.1241 49.638 21.8431 49.611 21.5951C49.584 21.3481 49.614 21.1451 49.677 21.1451C49.741 21.1451 49.803 21.051 49.816 20.937C49.828 20.822 49.885 20.4101 49.942 20.0221L50.046 19.3151L33.102 19.2721C23.783 19.2481 16.07 19.2761 15.962 19.3351Z" fill="#2D9670"/>
</svg>
