<svg width="520" height="520" viewBox="0 0 520 520" fill="none" xmlns="http://www.w3.org/2000/svg">
<g filter="url(#filter0_d_29_94)">
<circle cx="260" cy="256" r="256" fill="url(#paint0_linear_29_94)"/>
<path d="M411 164.208C411 170.867 410.425 178.742 409.275 187.833C408.125 196.797 406.145 207.169 403.334 218.949C400.651 230.602 396.946 243.663 392.218 258.133C387.619 272.602 381.869 288.673 374.97 306.343C367.431 325.551 359.701 342.582 351.78 357.435C343.986 372.161 336.639 384.646 329.74 394.89C322.968 405.134 317.027 413.073 311.917 418.707C306.806 424.341 303.228 427.671 301.184 428.695C297.862 430.232 294.221 431 290.26 431C286.938 431 283.552 430.488 280.102 429.463C276.653 428.439 273.714 426.838 271.287 424.662C269.753 423.381 267.198 420.116 263.62 414.866C260.171 409.616 256.466 402.189 252.505 392.585C248.544 382.853 244.711 370.753 241.006 356.283C237.3 341.813 234.553 324.591 232.765 304.615C227.271 311.786 221.266 319.469 214.75 327.664C208.233 335.859 201.59 344.054 194.818 352.249C188.046 360.316 181.275 368.256 174.503 376.067C167.859 383.75 161.598 390.792 155.721 397.195C149.844 403.597 144.605 409.103 140.006 413.713C135.406 418.451 131.829 421.844 129.273 423.893C127.868 422.613 126.271 421.076 124.482 419.283C122.565 417.491 120.649 415.57 118.732 413.521C116.688 411.6 114.772 409.616 112.983 407.567C111.066 405.518 109.405 403.597 108 401.805C126.654 385.414 145.564 362.301 164.729 332.466C183.894 302.63 202.164 266.648 219.541 224.52C221.713 226.312 223.757 228.105 225.674 229.898C227.59 231.69 229.443 233.483 231.231 235.276C231.743 217.349 232.318 201.407 232.956 187.449C233.723 173.492 234.553 161.199 235.448 150.571C236.342 139.815 237.173 130.595 237.939 122.912C238.834 115.229 239.664 108.698 240.431 103.32C241.197 97.9422 241.836 93.5885 242.347 90.2592C242.986 86.8019 243.497 84.0488 243.88 82C245.158 83.1524 247.075 85.0092 249.63 87.5702C252.185 90.0031 255.06 92.7562 258.254 95.8294C261.448 98.9026 264.77 102.168 268.22 105.625C271.798 108.955 275.12 112.156 278.186 115.229C281.38 118.302 284.127 121.055 286.427 123.488C288.855 125.921 290.515 127.714 291.41 128.866C289.749 135.269 287.832 142.76 285.66 151.339C283.616 159.79 281.636 169.778 279.719 181.303C277.93 192.699 276.397 205.76 275.12 220.486C273.842 235.212 273.203 251.986 273.203 270.81C273.331 288.352 273.97 305.319 275.12 321.709C275.631 328.752 276.206 336.051 276.844 343.606C277.611 351.033 278.505 358.396 279.528 365.695C280.677 372.865 282.019 379.78 283.552 386.439C285.085 393.097 286.81 399.052 288.727 404.302C304.698 377.923 317.41 352.377 326.865 327.664C336.448 302.95 343.794 278.749 348.905 255.059C354.016 231.37 357.338 208.065 358.871 185.144C360.404 162.095 361.171 139.11 361.171 116.189V102.936C367.815 108.058 374.139 113.756 380.144 120.031C386.149 126.305 391.452 132.26 396.051 137.894C401.417 144.424 406.4 151.019 411 157.677V164.208Z" fill="white"/>
</g>
<defs>
<filter id="filter0_d_29_94" x="0" y="0" width="520" height="520" filterUnits="userSpaceOnUse" color-interpolation-filters="sRGB">
<feFlood flood-opacity="0" result="BackgroundImageFix"/>
<feColorMatrix in="SourceAlpha" type="matrix" values="0 0 0 0 0 0 0 0 0 0 0 0 0 0 0 0 0 0 127 0" result="hardAlpha"/>
<feOffset dy="4"/>
<feGaussianBlur stdDeviation="2"/>
<feComposite in2="hardAlpha" operator="out"/>
<feColorMatrix type="matrix" values="0 0 0 0 0 0 0 0 0 0 0 0 0 0 0 0 0 0 0.25 0"/>
<feBlend mode="normal" in2="BackgroundImageFix" result="effect1_dropShadow_29_94"/>
<feBlend mode="normal" in="SourceGraphic" in2="effect1_dropShadow_29_94" result="shape"/>
</filter>
<linearGradient id="paint0_linear_29_94" x1="48" y1="72" x2="450" y2="396" gradientUnits="userSpaceOnUse">
<stop offset="1" stop-color="#3758F9"/>
</linearGradient>
</defs>
</svg>
