<svg width="1422" height="461" viewBox="0 0 1422 461" fill="none" xmlns="http://www.w3.org/2000/svg">
<path d="M461 401C461 434.137 434.137 461 401 461H60C26.8629 461 0 434.137 0 401V60C0 26.8629 26.8629 0 60 0H401C434.137 0 461 26.8629 461 60V401Z" fill="#3758F9"/>
<path d="M379.133 422H319.806L187.42 153.975H186.321V185.831L153.362 422H106.121L156.109 65H234.662L350.568 307.211H352.216L351.667 282.495L381.879 65H429.121L379.133 422Z" fill="white"/>
<path d="M1367.04 241.6L1350.24 361.2C1349.18 368.667 1348.64 375.867 1348.64 382.8C1348.64 391.6 1349.98 397.867 1352.64 401.6C1355.58 405.067 1360.11 406.8 1366.24 406.8C1372.91 406.8 1379.04 406.133 1384.64 404.8C1390.24 403.467 1393.04 402.667 1393.04 402.4L1392.64 418.4C1392.11 418.933 1390.38 419.867 1387.44 421.2C1384.51 422.267 1380.24 423.333 1374.64 424.4C1369.04 425.467 1362.38 426 1354.64 426C1342.38 426 1333.31 423.067 1327.44 417.2C1321.58 411.067 1318.64 401.2 1318.64 387.6C1318.64 381.2 1319.18 374.8 1320.24 368.4L1337.84 241.6H1317.04L1319.84 224.8L1340.64 222.4L1360.64 158.8H1378.64L1369.84 222H1421.04L1418.24 241.6H1367.04Z" fill="white"/>
<path d="M1257.96 151.6C1261.16 148.667 1265.3 147.2 1270.36 147.2C1275.16 147.2 1278.9 148.533 1281.56 151.2C1283.7 153.6 1284.76 157.067 1284.76 161.6C1284.76 167.467 1282.5 172.667 1277.96 177.2C1273.7 180.133 1269.43 181.6 1265.16 181.6C1260.36 181.6 1256.76 180.133 1254.36 177.2C1251.96 174.267 1250.76 170.8 1250.76 166.8C1250.76 163.867 1251.3 161.067 1252.36 158.4C1253.7 155.733 1255.56 153.467 1257.96 151.6ZM1245.96 422H1217.16L1245.16 222H1273.96L1245.96 422Z" fill="white"/>
<path d="M1076.73 122.8L1106.33 121.2L1079.13 314L1106.33 296.8L1176.33 222H1198.33L1120.73 304L1178.73 422H1145.13L1095.93 321.2L1076.33 332.4L1063.93 422H1035.13L1076.73 122.8Z" fill="white"/>
<path d="M1006.34 300.4C1006.34 325.467 1002.21 347.467 993.941 366.4C985.941 385.333 974.207 400 958.741 410.4C943.541 420.8 925.407 426 904.341 426C881.141 426 863.274 418.8 850.741 404.4C838.207 390 831.941 369.733 831.941 343.6C831.941 305.467 840.741 275.067 858.341 252.4C876.207 229.467 901.407 218 933.941 218C957.141 218 975.007 225.2 987.541 239.6C1000.07 254 1006.34 274.267 1006.34 300.4ZM930.741 235.6C908.341 235.6 891.274 245.467 879.541 265.2C867.807 284.933 861.941 312.933 861.941 349.2C861.941 367.867 865.674 382.4 873.141 392.8C880.874 403.2 892.474 408.4 907.941 408.4C930.074 408.4 947.007 398.667 958.741 379.2C970.474 359.467 976.341 331.467 976.341 295.2C976.341 276.267 972.474 261.6 964.741 251.2C957.274 240.8 945.941 235.6 930.741 235.6Z" fill="white"/>
<path d="M829.75 246.4C827.617 245.6 823.083 244.4 816.15 242.8C809.483 241.2 803.483 240.4 798.15 240.4C790.683 240.4 784.017 242.933 778.15 248C772.55 253.067 768.017 258.533 764.55 264.4C761.35 270.267 759.35 274.667 758.55 277.6V278L738.15 422H709.35L737.35 222H758.55L757.35 263.2C757.35 261.867 759.217 257.333 762.95 249.6C766.683 241.867 771.883 234.667 778.55 228C785.483 221.333 793.75 218 803.35 218C808.417 218 814.417 218.933 821.35 220.8C828.283 222.4 832.817 223.6 834.95 224.4L829.75 246.4Z" fill="white"/>
<path d="M640.481 241.6L623.681 361.2C622.615 368.667 622.081 375.867 622.081 382.8C622.081 391.6 623.415 397.867 626.081 401.6C629.015 405.067 633.548 406.8 639.681 406.8C646.348 406.8 652.481 406.133 658.081 404.8C663.681 403.467 666.481 402.667 666.481 402.4L666.081 418.4C665.548 418.933 663.815 419.867 660.881 421.2C657.948 422.267 653.681 423.333 648.081 424.4C642.481 425.467 635.815 426 628.081 426C615.815 426 606.748 423.067 600.881 417.2C595.015 411.067 592.081 401.2 592.081 387.6C592.081 381.2 592.615 374.8 593.681 368.4L611.281 241.6H590.481L593.281 224.8L614.081 222.4L634.081 158.8H652.081L643.281 222H694.481L691.681 241.6H640.481Z" fill="white"/>
<path d="M531.4 151.6C534.6 148.667 538.733 147.2 543.8 147.2C548.6 147.2 552.333 148.533 555 151.2C557.133 153.6 558.2 157.067 558.2 161.6C558.2 167.467 555.933 172.667 551.4 177.2C547.133 180.133 542.867 181.6 538.6 181.6C533.8 181.6 530.2 180.133 527.8 177.2C525.4 174.267 524.2 170.8 524.2 166.8C524.2 163.867 524.733 161.067 525.8 158.4C527.133 155.733 529 153.467 531.4 151.6ZM519.4 422H490.6L518.6 222H547.4L519.4 422Z" fill="white"/>
</svg>
